TITLE ""
FILE "LR_black_phrase_A05.mp3" MP3
  TRACK 01 AUDIO
    TITLE "LR_black_phrase_A05_001"
    INDEX 01 00:00:00
  TRACK 02 AUDIO
    TITLE "LR_black_phrase_A05_002"
    INDEX 01 00:00:14
  TRACK 03 AUDIO
    TITLE "LR_black_phrase_A05_003"
    INDEX 01 00:01:45
  TRACK 04 AUDIO
    TITLE "LR_black_phrase_A05_004"
    INDEX 01 00:02:07
  TRACK 05 AUDIO
    TITLE "LR_black_phrase_A05_005"
    INDEX 01 00:04:67
  TRACK 06 AUDIO
    TITLE "LR_black_phrase_A05_006"
    INDEX 01 00:05:64
  TRACK 07 AUDIO
    TITLE "LR_black_phrase_A05_007"
    INDEX 01 00:07:55
  TRACK 08 AUDIO
    TITLE "LR_black_phrase_A05_008"
    INDEX 01 00:08:12
  TRACK 09 AUDIO
    TITLE "LR_black_phrase_A05_009"
    INDEX 01 00:10:13
  TRACK 10 AUDIO
    TITLE "LR_black_phrase_A05_010"
    INDEX 01 00:10:36
  TRACK 11 AUDIO
    TITLE "LR_black_phrase_A05_011"
    INDEX 01 00:12:39
  TRACK 12 AUDIO
    TITLE "LR_black_phrase_A05_012"
    INDEX 01 00:13:44
  TRACK 13 AUDIO
    TITLE "LR_black_phrase_A05_013"
    INDEX 01 00:14:73
  TRACK 14 AUDIO
    TITLE "LR_black_phrase_A05_014"
    INDEX 01 00:15:39
  TRACK 15 AUDIO
    TITLE "LR_black_phrase_A05_015"
    INDEX 01 00:16:60
  TRACK 16 AUDIO
    TITLE "LR_black_phrase_A05_016"
    INDEX 01 00:17:60
  TRACK 17 AUDIO
    TITLE "LR_black_phrase_A05_017"
    INDEX 01 00:20:03
  TRACK 18 AUDIO
    TITLE "LR_black_phrase_A05_018"
    INDEX 01 00:20:42
  TRACK 19 AUDIO
    TITLE "LR_black_phrase_A05_019"
    INDEX 01 00:22:73
  TRACK 20 AUDIO
    TITLE "LR_black_phrase_A05_020"
    INDEX 01 00:23:27
  TRACK 21 AUDIO
    TITLE "LR_black_phrase_A05_021"
    INDEX 01 00:25:57
  TRACK 22 AUDIO
    TITLE "LR_black_phrase_A05_022"
    INDEX 01 00:26:63
  TRACK 23 AUDIO
    TITLE "LR_black_phrase_A05_023"
    INDEX 01 00:28:09
  TRACK 24 AUDIO
    TITLE "LR_black_phrase_A05_024"
    INDEX 01 00:28:50
  TRACK 25 AUDIO
    TITLE "LR_black_phrase_A05_025"
    INDEX 01 00:30:60
  TRACK 26 AUDIO
    TITLE "LR_black_phrase_A05_026"
    INDEX 01 00:31:60
  TRACK 27 AUDIO
    TITLE "LR_black_phrase_A05_027"
    INDEX 01 00:34:05
  TRACK 28 AUDIO
    TITLE "LR_black_phrase_A05_028"
    INDEX 01 00:34:44
  TRACK 29 AUDIO
    TITLE "LR_black_phrase_A05_029"
    INDEX 01 00:37:21
  TRACK 30 AUDIO
    TITLE "LR_black_phrase_A05_030"
    INDEX 01 00:37:49
  TRACK 31 AUDIO
    TITLE "LR_black_phrase_A05_031"
    INDEX 01 00:40:25
  TRACK 32 AUDIO
    TITLE "LR_black_phrase_A05_032"
    INDEX 01 00:41:25
  TRACK 33 AUDIO
    TITLE "LR_black_phrase_A05_033"
    INDEX 01 00:42:40
  TRACK 34 AUDIO
    TITLE "LR_black_phrase_A05_034"
    INDEX 01 00:43:08
  TRACK 35 AUDIO
    TITLE "LR_black_phrase_A05_035"
    INDEX 01 00:45:44
  TRACK 36 AUDIO
    TITLE "LR_black_phrase_A05_036"
    INDEX 01 00:46:42
  TRACK 37 AUDIO
    TITLE "LR_black_phrase_A05_037"
    INDEX 01 00:48:52
  TRACK 38 AUDIO
    TITLE "LR_black_phrase_A05_038"
    INDEX 01 00:49:15
  TRACK 39 AUDIO
    TITLE "LR_black_phrase_A05_039"
    INDEX 01 00:51:68
  TRACK 40 AUDIO
    TITLE "LR_black_phrase_A05_040"
    INDEX 01 00:52:15
  TRACK 41 AUDIO
    TITLE "LR_black_phrase_A05_041"
    INDEX 01 00:54:71
  TRACK 42 AUDIO
    TITLE "LR_black_phrase_A05_042"
    INDEX 01 00:55:68
  TRACK 43 AUDIO
    TITLE "LR_black_phrase_A05_043"
    INDEX 01 00:57:18
  TRACK 44 AUDIO
    TITLE "LR_black_phrase_A05_044"
    INDEX 01 00:57:55
  TRACK 45 AUDIO
    TITLE "LR_black_phrase_A05_045"
    INDEX 01 00:59:05
  TRACK 46 AUDIO
    TITLE "LR_black_phrase_A05_046"
    INDEX 01 01:00:05
  TRACK 47 AUDIO
    TITLE "LR_black_phrase_A05_047"
    INDEX 01 01:02:35
  TRACK 48 AUDIO
    TITLE "LR_black_phrase_A05_048"
    INDEX 01 01:02:72
  TRACK 49 AUDIO
    TITLE "LR_black_phrase_A05_049"
    INDEX 01 01:05:23
  TRACK 50 AUDIO
    TITLE "LR_black_phrase_A05_050"
    INDEX 01 01:05:41
  TRACK 51 AUDIO
    TITLE "LR_black_phrase_A05_051"
    INDEX 01 01:07:71
  TRACK 52 AUDIO
    TITLE "LR_black_phrase_A05_052"
    INDEX 01 01:08:65
  TRACK 53 AUDIO
    TITLE "LR_black_phrase_A05_053"
    INDEX 01 01:09:66
  TRACK 54 AUDIO
    TITLE "LR_black_phrase_A05_054"
    INDEX 01 01:10:27
  TRACK 55 AUDIO
    TITLE "LR_black_phrase_A05_055"
    INDEX 01 01:12:35
  TRACK 56 AUDIO
    TITLE "LR_black_phrase_A05_056"
    INDEX 01 01:13:37
  TRACK 57 AUDIO
    TITLE "LR_black_phrase_A05_057"
    INDEX 01 01:15:47
  TRACK 58 AUDIO
    TITLE "LR_black_phrase_A05_058"
    INDEX 01 01:16:08
  TRACK 59 AUDIO
    TITLE "LR_black_phrase_A05_059"
    INDEX 01 01:18:26
  TRACK 60 AUDIO
    TITLE "LR_black_phrase_A05_060"
    INDEX 01 01:18:48
  TRACK 61 AUDIO
    TITLE "LR_black_phrase_A05_061"
    INDEX 01 01:20:66
  TRACK 62 AUDIO
    TITLE "LR_black_phrase_A05_062"
    INDEX 01 01:21:68
  TRACK 63 AUDIO
    TITLE "LR_black_phrase_A05_063"
    INDEX 01 01:23:10
  TRACK 64 AUDIO
    TITLE "LR_black_phrase_A05_064"
    INDEX 01 01:23:45
  TRACK 65 AUDIO
    TITLE "LR_black_phrase_A05_065"
    INDEX 01 01:25:05
  TRACK 66 AUDIO
    TITLE "LR_black_phrase_A05_066"
    INDEX 01 01:26:02
  TRACK 67 AUDIO
    TITLE "LR_black_phrase_A05_067"
    INDEX 01 01:27:29
  TRACK 68 AUDIO
    TITLE "LR_black_phrase_A05_068"
    INDEX 01 01:27:64
  TRACK 69 AUDIO
    TITLE "LR_black_phrase_A05_069"
    INDEX 01 01:29:47
  TRACK 70 AUDIO
    TITLE "LR_black_phrase_A05_070"
    INDEX 01 01:29:71
  TRACK 71 AUDIO
    TITLE "LR_black_phrase_A05_071"
    INDEX 01 01:31:54
  TRACK 72 AUDIO
    TITLE "LR_black_phrase_A05_072"
    INDEX 01 01:32:60
  TRACK 73 AUDIO
    TITLE "LR_black_phrase_A05_073"
    INDEX 01 01:34:25
  TRACK 74 AUDIO
    TITLE "LR_black_phrase_A05_074"
    INDEX 01 01:34:64
  TRACK 75 AUDIO
    TITLE "LR_black_phrase_A05_075"
    INDEX 01 01:35:66
  TRACK 76 AUDIO
    TITLE "LR_black_phrase_A05_076"
    INDEX 01 01:36:57
  TRACK 77 AUDIO
    TITLE "LR_black_phrase_A05_077"
    INDEX 01 01:39:07
  TRACK 78 AUDIO
    TITLE "LR_black_phrase_A05_078"
    INDEX 01 01:39:48
  TRACK 79 AUDIO
    TITLE "LR_black_phrase_A05_079"
    INDEX 01 01:42:11
  TRACK 80 AUDIO
    TITLE "LR_black_phrase_A05_080"
    INDEX 01 01:42:40
  TRACK 81 AUDIO
    TITLE "LR_black_phrase_A05_081"
    INDEX 01 01:45:03
  TRACK 82 AUDIO
    TITLE "LR_black_phrase_A05_082"
    INDEX 01 01:46:07
  TRACK 83 AUDIO
    TITLE "LR_black_phrase_A05_083"
    INDEX 01 01:47:34
  TRACK 84 AUDIO
    TITLE "LR_black_phrase_A05_084"
    INDEX 01 01:48:00
  TRACK 85 AUDIO
    TITLE "LR_black_phrase_A05_085"
    INDEX 01 01:50:40
  TRACK 86 AUDIO
    TITLE "LR_black_phrase_A05_086"
    INDEX 01 01:51:39
  TRACK 87 AUDIO
    TITLE "LR_black_phrase_A05_087"
    INDEX 01 01:54:18
  TRACK 88 AUDIO
    TITLE "LR_black_phrase_A05_088"
    INDEX 01 01:54:57
  TRACK 89 AUDIO
    TITLE "LR_black_phrase_A05_089"
    INDEX 01 01:57:65
  TRACK 90 AUDIO
    TITLE "LR_black_phrase_A05_090"
    INDEX 01 01:58:20
  TRACK 91 AUDIO
    TITLE "LR_black_phrase_A05_091"
    INDEX 01 02:01:28
  TRACK 92 AUDIO
    TITLE "LR_black_phrase_A05_092"
    INDEX 01 02:02:29
  TRACK 93 AUDIO
    TITLE "LR_black_phrase_A05_093"
    INDEX 01 02:03:40
  TRACK 94 AUDIO
    TITLE "LR_black_phrase_A05_094"
    INDEX 01 02:04:03
  TRACK 95 AUDIO
    TITLE "LR_black_phrase_A05_095"
    INDEX 01 02:06:47
  TRACK 96 AUDIO
    TITLE "LR_black_phrase_A05_096"
    INDEX 01 02:07:42
  TRACK 97 AUDIO
    TITLE "LR_black_phrase_A05_097"
    INDEX 01 02:10:44
  TRACK 98 AUDIO
    TITLE "LR_black_phrase_A05_098"
    INDEX 01 02:11:03
  TRACK 99 AUDIO
    TITLE "LR_black_phrase_A05_099"
    INDEX 01 02:14:38
  TRACK 100 AUDIO
    TITLE "LR_black_phrase_A05_100"
    INDEX 01 02:14:66
  TRACK 101 AUDIO
    TITLE "LR_black_phrase_A05_101"
    INDEX 01 02:18:26
  TRACK 102 AUDIO
    TITLE "LR_black_phrase_A05_102"
    INDEX 01 02:19:28
  TRACK 103 AUDIO
    TITLE "LR_black_phrase_A05_103"
    INDEX 01 02:20:45
  TRACK 104 AUDIO
    TITLE "LR_black_phrase_A05_104"
    INDEX 01 02:21:05
  TRACK 105 AUDIO
    TITLE "LR_black_phrase_A05_105"
    INDEX 01 02:24:00
  TRACK 106 AUDIO
    TITLE "LR_black_phrase_A05_106"
    INDEX 01 02:24:72
  TRACK 107 AUDIO
    TITLE "LR_black_phrase_A05_107"
    INDEX 01 02:27:45
  TRACK 108 AUDIO
    TITLE "LR_black_phrase_A05_108"
    INDEX 01 02:28:05
  TRACK 109 AUDIO
    TITLE "LR_black_phrase_A05_109"
    INDEX 01 02:30:71
  TRACK 110 AUDIO
    TITLE "LR_black_phrase_A05_110"
    INDEX 01 02:31:15
  TRACK 111 AUDIO
    TITLE "LR_black_phrase_A05_111"
    INDEX 01 02:34:04
  TRACK 112 AUDIO
    TITLE "LR_black_phrase_A05_112"
    INDEX 01 02:35:03
  TRACK 113 AUDIO
    TITLE "LR_black_phrase_A05_113"
    INDEX 01 02:36:09
  TRACK 114 AUDIO
    TITLE "LR_black_phrase_A05_114"
    INDEX 01 02:36:44
  TRACK 115 AUDIO
    TITLE "LR_black_phrase_A05_115"
    INDEX 01 02:38:74
  TRACK 116 AUDIO
    TITLE "LR_black_phrase_A05_116"
    INDEX 01 02:40:02
  TRACK 117 AUDIO
    TITLE "LR_black_phrase_A05_117"
    INDEX 01 02:42:01
  TRACK 118 AUDIO
    TITLE "LR_black_phrase_A05_118"
    INDEX 01 02:42:37
  TRACK 119 AUDIO
    TITLE "LR_black_phrase_A05_119"
    INDEX 01 02:45:06
  TRACK 120 AUDIO
    TITLE "LR_black_phrase_A05_120"
    INDEX 01 02:45:27
  TRACK 121 AUDIO
    TITLE "LR_black_phrase_A05_121"
    INDEX 01 02:47:69
  TRACK 122 AUDIO
    TITLE "LR_black_phrase_A05_122"
    INDEX 01 02:48:74
  TRACK 123 AUDIO
    TITLE "LR_black_phrase_A05_123"
    INDEX 01 02:50:09
  TRACK 124 AUDIO
    TITLE "LR_black_phrase_A05_124"
    INDEX 01 02:50:48
  TRACK 125 AUDIO
    TITLE "LR_black_phrase_A05_125"
    INDEX 01 02:51:51
  TRACK 126 AUDIO
    TITLE "LR_black_phrase_A05_126"
    INDEX 01 02:52:45
  TRACK 127 AUDIO
    TITLE "LR_black_phrase_A05_127"
    INDEX 01 02:54:44
  TRACK 128 AUDIO
    TITLE "LR_black_phrase_A05_128"
    INDEX 01 02:55:08
  TRACK 129 AUDIO
    TITLE "LR_black_phrase_A05_129"
    INDEX 01 02:56:74
  TRACK 130 AUDIO
    TITLE "LR_black_phrase_A05_130"
    INDEX 01 02:57:30
  TRACK 131 AUDIO
    TITLE "LR_black_phrase_A05_131"
    INDEX 01 02:59:21
  TRACK 132 AUDIO
    TITLE "LR_black_phrase_A05_132"
    INDEX 01 03:00:27
  TRACK 133 AUDIO
    TITLE "LR_black_phrase_A05_133"
    INDEX 01 03:01:36
  TRACK 134 AUDIO
    TITLE "LR_black_phrase_A05_134"
    INDEX 01 03:01:73
  TRACK 135 AUDIO
    TITLE "LR_black_phrase_A05_135"
    INDEX 01 03:04:07
  TRACK 136 AUDIO
    TITLE "LR_black_phrase_A05_136"
    INDEX 01 03:05:06
  TRACK 137 AUDIO
    TITLE "LR_black_phrase_A05_137"
    INDEX 01 03:06:35
  TRACK 138 AUDIO
    TITLE "LR_black_phrase_A05_138"
    INDEX 01 03:06:74
  TRACK 139 AUDIO
    TITLE "LR_black_phrase_A05_139"
    INDEX 01 03:09:04
  TRACK 140 AUDIO
    TITLE "LR_black_phrase_A05_140"
    INDEX 01 03:09:33
  TRACK 141 AUDIO
    TITLE "LR_black_phrase_A05_141"
    INDEX 01 03:11:36
  TRACK 142 AUDIO
    TITLE "LR_black_phrase_A05_142"
    INDEX 01 03:12:40
  TRACK 143 AUDIO
    TITLE "LR_black_phrase_A05_143"
    INDEX 01 03:13:69
  TRACK 144 AUDIO
    TITLE "LR_black_phrase_A05_144"
    INDEX 01 03:14:35
  TRACK 145 AUDIO
    TITLE "LR_black_phrase_A05_145"
    INDEX 01 03:15:44
  TRACK 146 AUDIO
    TITLE "LR_black_phrase_A05_146"
    INDEX 01 03:16:45
  TRACK 147 AUDIO
    TITLE "LR_black_phrase_A05_147"
    INDEX 01 03:18:09
  TRACK 148 AUDIO
    TITLE "LR_black_phrase_A05_148"
    INDEX 01 03:18:48
  TRACK 149 AUDIO
    TITLE "LR_black_phrase_A05_149"
    INDEX 01 03:20:39
  TRACK 150 AUDIO
    TITLE "LR_black_phrase_A05_150"
    INDEX 01 03:20:73
  TRACK 151 AUDIO
    TITLE "LR_black_phrase_A05_151"
    INDEX 01 03:22:62
  TRACK 152 AUDIO
    TITLE "LR_black_phrase_A05_152"
    INDEX 01 03:23:63
  TRACK 153 AUDIO
    TITLE "LR_black_phrase_A05_153"
    INDEX 01 03:24:68
  TRACK 154 AUDIO
    TITLE "LR_black_phrase_A05_154"
    INDEX 01 03:25:34
  TRACK 155 AUDIO
    TITLE "LR_black_phrase_A05_155"
    INDEX 01 03:26:65
  TRACK 156 AUDIO
    TITLE "LR_black_phrase_A05_156"
    INDEX 01 03:27:65
  TRACK 157 AUDIO
    TITLE "LR_black_phrase_A05_157"
    INDEX 01 03:30:67
  TRACK 158 AUDIO
    TITLE "LR_black_phrase_A05_158"
    INDEX 01 03:31:25
  TRACK 159 AUDIO
    TITLE "LR_black_phrase_A05_159"
    INDEX 01 03:33:22
  TRACK 160 AUDIO
    TITLE "LR_black_phrase_A05_160"
    INDEX 01 03:33:42
  TRACK 161 AUDIO
    TITLE "LR_black_phrase_A05_161"
    INDEX 01 03:35:39
  TRACK 162 AUDIO
    TITLE "LR_black_phrase_A05_162"
    INDEX 01 03:36:34
  TRACK 163 AUDIO
    TITLE "LR_black_phrase_A05_163"
    INDEX 01 03:37:65
  TRACK 164 AUDIO
    TITLE "LR_black_phrase_A05_164"
    INDEX 01 03:38:27
  TRACK 165 AUDIO
    TITLE "LR_black_phrase_A05_165"
    INDEX 01 03:41:16
  TRACK 166 AUDIO
    TITLE "LR_black_phrase_A05_166"
    INDEX 01 03:42:19
  TRACK 167 AUDIO
    TITLE "LR_black_phrase_A05_167"
    INDEX 01 03:44:20
  TRACK 168 AUDIO
    TITLE "LR_black_phrase_A05_168"
    INDEX 01 03:44:55
  TRACK 169 AUDIO
    TITLE "LR_black_phrase_A05_169"
    INDEX 01 03:47:01
  TRACK 170 AUDIO
    TITLE "LR_black_phrase_A05_170"
    INDEX 01 03:47:20
  TRACK 171 AUDIO
    TITLE "LR_black_phrase_A05_171"
    INDEX 01 03:49:41
  TRACK 172 AUDIO
    TITLE "LR_black_phrase_A05_172"
    INDEX 01 03:50:34
  TRACK 173 AUDIO
    TITLE "LR_black_phrase_A05_173"
    INDEX 01 03:51:40
  TRACK 174 AUDIO
    TITLE "LR_black_phrase_A05_174"
    INDEX 01 03:52:02
  TRACK 175 AUDIO
    TITLE "LR_black_phrase_A05_175"
    INDEX 01 03:55:08
  TRACK 176 AUDIO
    TITLE "LR_black_phrase_A05_176"
    INDEX 01 03:56:08
  TRACK 177 AUDIO
    TITLE "LR_black_phrase_A05_177"
    INDEX 01 03:59:63
  TRACK 178 AUDIO
    TITLE "LR_black_phrase_A05_178"
    INDEX 01 04:00:21
  TRACK 179 AUDIO
    TITLE "LR_black_phrase_A05_179"
    INDEX 01 04:03:14
  TRACK 180 AUDIO
    TITLE "LR_black_phrase_A05_180"
    INDEX 01 04:03:35
  TRACK 181 AUDIO
    TITLE "LR_black_phrase_A05_181"
    INDEX 01 04:06:26
  TRACK 182 AUDIO
    TITLE "LR_black_phrase_A05_182"
    INDEX 01 04:07:27
  TRACK 183 AUDIO
    TITLE "LR_black_phrase_A05_183"
    INDEX 01 04:08:44
  TRACK 184 AUDIO
    TITLE "LR_black_phrase_A05_184"
    INDEX 01 04:09:10
  TRACK 185 AUDIO
    TITLE "LR_black_phrase_A05_185"
    INDEX 01 04:12:05
  TRACK 186 AUDIO
    TITLE "LR_black_phrase_A05_186"
    INDEX 01 04:13:04
  TRACK 187 AUDIO
    TITLE "LR_black_phrase_A05_187"
    INDEX 01 04:15:70
  TRACK 188 AUDIO
    TITLE "LR_black_phrase_A05_188"
    INDEX 01 04:16:34
  TRACK 189 AUDIO
    TITLE "LR_black_phrase_A05_189"
    INDEX 01 04:19:05
  TRACK 190 AUDIO
    TITLE "LR_black_phrase_A05_190"
    INDEX 01 04:19:40
  TRACK 191 AUDIO
    TITLE "LR_black_phrase_A05_191"
    INDEX 01 04:22:11
  TRACK 192 AUDIO
    TITLE "LR_black_phrase_A05_192"
    INDEX 01 04:23:22
  TRACK 193 AUDIO
    TITLE "LR_black_phrase_A05_193"
    INDEX 01 04:24:45
  TRACK 194 AUDIO
    TITLE "LR_black_phrase_A05_194"
    INDEX 01 04:25:09
  TRACK 195 AUDIO
    TITLE "LR_black_phrase_A05_195"
    INDEX 01 04:27:73
  TRACK 196 AUDIO
    TITLE "LR_black_phrase_A05_196"
    INDEX 01 04:28:72
  TRACK 197 AUDIO
    TITLE "LR_black_phrase_A05_197"
    INDEX 01 04:30:57
  TRACK 198 AUDIO
    TITLE "LR_black_phrase_A05_198"
    INDEX 01 04:31:22
  TRACK 199 AUDIO
    TITLE "LR_black_phrase_A05_199"
    INDEX 01 04:33:62
  TRACK 200 AUDIO
    TITLE "LR_black_phrase_A05_200"
    INDEX 01 04:34:20
  TRACK 201 AUDIO
    TITLE "LR_black_phrase_A05_201"
    INDEX 01 04:36:60
  TRACK 202 AUDIO
    TITLE "LR_black_phrase_A05_202"
    INDEX 01 04:37:67
  TRACK 203 AUDIO
    TITLE "LR_black_phrase_A05_203"
    INDEX 01 04:39:15
  TRACK 204 AUDIO
    TITLE "LR_black_phrase_A05_204"
    INDEX 01 04:39:54
  TRACK 205 AUDIO
    TITLE "LR_black_phrase_A05_205"
    INDEX 01 04:41:12
  TRACK 206 AUDIO
    TITLE "LR_black_phrase_A05_206"
    INDEX 01 04:42:10
  TRACK 207 AUDIO
    TITLE "LR_black_phrase_A05_207"
    INDEX 01 04:43:72
  TRACK 208 AUDIO
    TITLE "LR_black_phrase_A05_208"
    INDEX 01 04:44:44
  TRACK 209 AUDIO
    TITLE "LR_black_phrase_A05_209"
    INDEX 01 04:46:23
  TRACK 210 AUDIO
    TITLE "LR_black_phrase_A05_210"
    INDEX 01 04:46:55
  TRACK 211 AUDIO
    TITLE "LR_black_phrase_A05_211"
    INDEX 01 04:48:38
  TRACK 212 AUDIO
    TITLE "LR_black_phrase_A05_212"
    INDEX 01 04:49:37
  TRACK 213 AUDIO
    TITLE "LR_black_phrase_A05_213"
    INDEX 01 04:50:58
  TRACK 214 AUDIO
    TITLE "LR_black_phrase_A05_214"
    INDEX 01 04:51:20
  TRACK 215 AUDIO
    TITLE "LR_black_phrase_A05_215"
    INDEX 01 04:52:41
  TRACK 216 AUDIO
    TITLE "LR_black_phrase_A05_216"
    INDEX 01 04:53:39
  TRACK 217 AUDIO
    TITLE "LR_black_phrase_A05_217"
    INDEX 01 04:57:23
  TRACK 218 AUDIO
    TITLE "LR_black_phrase_A05_218"
    INDEX 01 04:57:62
  TRACK 219 AUDIO
    TITLE "LR_black_phrase_A05_219"
    INDEX 01 05:01:09
  TRACK 220 AUDIO
    TITLE "LR_black_phrase_A05_220"
    INDEX 01 05:01:34
  TRACK 221 AUDIO
    TITLE "LR_black_phrase_A05_221"
    INDEX 01 05:04:56
  TRACK 222 AUDIO
    TITLE "LR_black_phrase_A05_222"
    INDEX 01 05:05:52
  TRACK 223 AUDIO
    TITLE "LR_black_phrase_A05_223"
    INDEX 01 05:07:02
  TRACK 224 AUDIO
    TITLE "LR_black_phrase_A05_224"
    INDEX 01 05:07:37
  TRACK 225 AUDIO
    TITLE "LR_black_phrase_A05_225"
    INDEX 01 05:09:65
  TRACK 226 AUDIO
    TITLE "LR_black_phrase_A05_226"
    INDEX 01 05:10:65
  TRACK 227 AUDIO
    TITLE "LR_black_phrase_A05_227"
    INDEX 01 05:12:42
  TRACK 228 AUDIO
    TITLE "LR_black_phrase_A05_228"
    INDEX 01 05:13:00
  TRACK 229 AUDIO
    TITLE "LR_black_phrase_A05_229"
    INDEX 01 05:15:13
  TRACK 230 AUDIO
    TITLE "LR_black_phrase_A05_230"
    INDEX 01 05:15:35
  TRACK 231 AUDIO
    TITLE "LR_black_phrase_A05_231"
    INDEX 01 05:17:45
  TRACK 232 AUDIO
    TITLE "LR_black_phrase_A05_232"
    INDEX 01 05:18:39
  TRACK 233 AUDIO
    TITLE "LR_black_phrase_A05_233"
    INDEX 01 05:19:46
  TRACK 234 AUDIO
    TITLE "LR_black_phrase_A05_234"
    INDEX 01 05:20:06
  TRACK 235 AUDIO
    TITLE "LR_black_phrase_A05_235"
    INDEX 01 05:21:45
  TRACK 236 AUDIO
    TITLE "LR_black_phrase_A05_236"
    INDEX 01 05:22:48
  TRACK 237 AUDIO
    TITLE "LR_black_phrase_A05_237"
    INDEX 01 05:24:36
  TRACK 238 AUDIO
    TITLE "LR_black_phrase_A05_238"
    INDEX 01 05:24:71
  TRACK 239 AUDIO
    TITLE "LR_black_phrase_A05_239"
    INDEX 01 05:26:50
  TRACK 240 AUDIO
    TITLE "LR_black_phrase_A05_240"
    INDEX 01 05:26:68
  TRACK 241 AUDIO
    TITLE "LR_black_phrase_A05_241"
    INDEX 01 05:28:47
  TRACK 242 AUDIO
    TITLE "LR_black_phrase_A05_242"
    INDEX 01 05:29:45
  TRACK 243 AUDIO
    TITLE "LR_black_phrase_A05_243"
    INDEX 01 05:31:00
  TRACK 244 AUDIO
    TITLE "LR_black_phrase_A05_244"
    INDEX 01 05:31:43
  TRACK 245 AUDIO
    TITLE "LR_black_phrase_A05_245"
    INDEX 01 05:33:72
  TRACK 246 AUDIO
    TITLE "LR_black_phrase_A05_246"
    INDEX 01 05:34:71
  TRACK 247 AUDIO
    TITLE "LR_black_phrase_A05_247"
    INDEX 01 05:37:28
  TRACK 248 AUDIO
    TITLE "LR_black_phrase_A05_248"
    INDEX 01 05:37:70
  TRACK 249 AUDIO
    TITLE "LR_black_phrase_A05_249"
    INDEX 01 05:39:74
  TRACK 250 AUDIO
    TITLE "LR_black_phrase_A05_250"
    INDEX 01 05:40:25
  TRACK 251 AUDIO
    TITLE "LR_black_phrase_A05_251"
    INDEX 01 05:42:33
  TRACK 252 AUDIO
    TITLE "LR_black_phrase_A05_252"
    INDEX 01 05:43:35
  TRACK 253 AUDIO
    TITLE "LR_black_phrase_A05_253"
    INDEX 01 05:44:34
  TRACK 254 AUDIO
    TITLE "LR_black_phrase_A05_254"
    INDEX 01 05:44:72
  TRACK 255 AUDIO
    TITLE "LR_black_phrase_A05_255"
    INDEX 01 05:47:52
  TRACK 256 AUDIO
    TITLE "LR_black_phrase_A05_256"
    INDEX 01 05:48:54
  TRACK 257 AUDIO
    TITLE "LR_black_phrase_A05_257"
    INDEX 01 05:50:43
  TRACK 258 AUDIO
    TITLE "LR_black_phrase_A05_258"
    INDEX 01 05:51:07
  TRACK 259 AUDIO
    TITLE "LR_black_phrase_A05_259"
    INDEX 01 05:52:53
  TRACK 260 AUDIO
    TITLE "LR_black_phrase_A05_260"
    INDEX 01 05:53:08
  TRACK 261 AUDIO
    TITLE "LR_black_phrase_A05_261"
    INDEX 01 05:54:52
  TRACK 262 AUDIO
    TITLE "LR_black_phrase_A05_262"
    INDEX 01 05:55:58
  TRACK 263 AUDIO
    TITLE "LR_black_phrase_A05_263"
    INDEX 01 05:57:02
  TRACK 264 AUDIO
    TITLE "LR_black_phrase_A05_264"
    INDEX 01 05:57:39
  TRACK 265 AUDIO
    TITLE "LR_black_phrase_A05_265"
    INDEX 01 05:59:67
  TRACK 266 AUDIO
    TITLE "LR_black_phrase_A05_266"
    INDEX 01 06:00:65
  TRACK 267 AUDIO
    TITLE "LR_black_phrase_A05_267"
    INDEX 01 06:02:42
  TRACK 268 AUDIO
    TITLE "LR_black_phrase_A05_268"
    INDEX 01 06:03:06
  TRACK 269 AUDIO
    TITLE "LR_black_phrase_A05_269"
    INDEX 01 06:05:40
  TRACK 270 AUDIO
    TITLE "LR_black_phrase_A05_270"
    INDEX 01 06:05:70
  TRACK 271 AUDIO
    TITLE "LR_black_phrase_A05_271"
    INDEX 01 06:08:27
  TRACK 272 AUDIO
    TITLE "LR_black_phrase_A05_272"
    INDEX 01 06:09:26
  TRACK 273 AUDIO
    TITLE "LR_black_phrase_A05_273"
    INDEX 01 06:10:61
  TRACK 274 AUDIO
    TITLE "LR_black_phrase_A05_274"
    INDEX 01 06:11:21
  TRACK 275 AUDIO
    TITLE "LR_black_phrase_A05_275"
    INDEX 01 06:12:60
  TRACK 276 AUDIO
    TITLE "LR_black_phrase_A05_276"
    INDEX 01 06:13:61
  TRACK 277 AUDIO
    TITLE "LR_black_phrase_A05_277"
    INDEX 01 06:16:24
  TRACK 278 AUDIO
    TITLE "LR_black_phrase_A05_278"
    INDEX 01 06:16:58
  TRACK 279 AUDIO
    TITLE "LR_black_phrase_A05_279"
    INDEX 01 06:19:35
  TRACK 280 AUDIO
    TITLE "LR_black_phrase_A05_280"
    INDEX 01 06:19:54
  TRACK 281 AUDIO
    TITLE "LR_black_phrase_A05_281"
    INDEX 01 06:22:33
  TRACK 282 AUDIO
    TITLE "LR_black_phrase_A05_282"
    INDEX 01 06:23:27
  TRACK 283 AUDIO
    TITLE "LR_black_phrase_A05_283"
    INDEX 01 06:24:34
  TRACK 284 AUDIO
    TITLE "LR_black_phrase_A05_284"
    INDEX 01 06:24:69
  TRACK 285 AUDIO
    TITLE "LR_black_phrase_A05_285"
    INDEX 01 06:26:25
  TRACK 286 AUDIO
    TITLE "LR_black_phrase_A05_286"
    INDEX 01 06:27:32
  TRACK 287 AUDIO
    TITLE "LR_black_phrase_A05_287"
    INDEX 01 06:29:53
  TRACK 288 AUDIO
    TITLE "LR_black_phrase_A05_288"
    INDEX 01 06:30:15
  TRACK 289 AUDIO
    TITLE "LR_black_phrase_A05_289"
    INDEX 01 06:32:18
  TRACK 290 AUDIO
    TITLE "LR_black_phrase_A05_290"
    INDEX 01 06:32:37
  TRACK 291 AUDIO
    TITLE "LR_black_phrase_A05_291"
    INDEX 01 06:34:40
  TRACK 292 AUDIO
    TITLE "LR_black_phrase_A05_292"
    INDEX 01 06:35:36
  TRACK 293 AUDIO
    TITLE "LR_black_phrase_A05_293"
    INDEX 01 06:36:66
  TRACK 294 AUDIO
    TITLE "LR_black_phrase_A05_294"
    INDEX 01 06:37:29
  TRACK 295 AUDIO
    TITLE "LR_black_phrase_A05_295"
    INDEX 01 06:38:61
  TRACK 296 AUDIO
    TITLE "LR_black_phrase_A05_296"
    INDEX 01 06:39:57
  TRACK 297 AUDIO
    TITLE "LR_black_phrase_A05_297"
    INDEX 01 06:42:14
  TRACK 298 AUDIO
    TITLE "LR_black_phrase_A05_298"
    INDEX 01 06:42:47
  TRACK 299 AUDIO
    TITLE "LR_black_phrase_A05_299"
    INDEX 01 06:44:54
  TRACK 300 AUDIO
    TITLE "LR_black_phrase_A05_300"
    INDEX 01 06:45:01
  TRACK 301 AUDIO
    TITLE "LR_black_phrase_A05_301"
    INDEX 01 06:47:07
